<?xml version="1.0" encoding="UTF-8"?>
<svg xmlns="http://www.w3.org/2000/svg" xmlns:xlink="http://www.w3.org/1999/xlink" width="269.333333" height="208" viewBox="0 0 269.333333 208" version="1.1">
<g id="surface1">
<path style="fill-rule:nonzero;fill:rgb(100%,100%,100%);fill-opacity:1;stroke-width:1;stroke-linecap:round;stroke-linejoin:round;stroke:rgb(0%,0%,0%);stroke-opacity:1;stroke-miterlimit:10;" d="M 115.000977 63.436523 L 118.563477 61.620117 L 120.379883 65.182617 L 116.817383 66.999023 Z M 115.000977 63.436523 " transform="matrix(1.333333,0,0,1.333333,1.333333,4)"/>
<path style="fill:none;stroke-width:1;stroke-linecap:round;stroke-linejoin:round;stroke:rgb(0%,0%,0%);stroke-opacity:1;stroke-miterlimit:10;" d="M 99.790039 70.004883 C 102.081055 69.922852 104.219727 71.15625 105.297852 73.183594 " transform="matrix(1.333333,0,0,1.333333,1.333333,4)"/>
<path style="fill:none;stroke-width:1;stroke-linecap:butt;stroke-linejoin:round;stroke:rgb(0%,0%,0%);stroke-opacity:1;stroke-miterlimit:10;" d="M 94.141602 14.493164 L 99.860352 74.610352 " transform="matrix(1.333333,0,0,1.333333,1.333333,4)"/>
<path style="fill-rule:nonzero;fill:rgb(0%,0%,0%);fill-opacity:1;stroke-width:1;stroke-linecap:butt;stroke-linejoin:miter;stroke:rgb(0%,0%,0%);stroke-opacity:1;stroke-miterlimit:10;" d="M 98.84375 75.149414 C 99.371094 74.510742 100.317383 74.422852 100.956055 74.950195 C 101.594727 75.477539 101.682617 76.420898 101.155273 77.05957 C 100.62793 77.698242 99.68457 77.789062 99.042969 77.261719 C 98.407227 76.734375 98.316406 75.788086 98.84375 75.149414 " transform="matrix(1.333333,0,0,1.333333,1.333333,4)"/>
<path style="fill-rule:nonzero;fill:rgb(0%,0%,0%);fill-opacity:1;stroke-width:1;stroke-linecap:butt;stroke-linejoin:miter;stroke:rgb(0%,0%,0%);stroke-opacity:1;stroke-miterlimit:10;" d="M 95.155273 13.957031 C 94.62793 14.592773 93.68457 14.683594 93.042969 14.15625 C 92.407227 13.628906 92.316406 12.682617 92.84375 12.043945 C 93.371094 11.405273 94.317383 11.317383 94.956055 11.844727 C 95.594727 12.37207 95.682617 13.31543 95.155273 13.957031 " transform="matrix(1.333333,0,0,1.333333,1.333333,4)"/>
<path style="fill:none;stroke-width:1;stroke-linecap:butt;stroke-linejoin:round;stroke:rgb(0%,0%,0%);stroke-opacity:1;stroke-dasharray:1,4;stroke-miterlimit:10;" d="M 5.899414 75.999023 L 194.102539 75.999023 " transform="matrix(1.333333,0,0,1.333333,1.333333,4)"/>
<path style="fill:none;stroke-width:1;stroke-linecap:butt;stroke-linejoin:miter;stroke:rgb(0%,0%,0%);stroke-opacity:1;stroke-miterlimit:10;" d="M 198.101562 75.999023 L 194.102539 75.999023 M 194.102539 74.499023 L 198.101562 75.999023 L 194.102539 77.499023 " transform="matrix(1.333333,0,0,1.333333,1.333333,4)"/>
<path style="fill:none;stroke-width:1;stroke-linecap:butt;stroke-linejoin:miter;stroke:rgb(0%,0%,0%);stroke-opacity:1;stroke-miterlimit:10;" d="M 1.897461 75.999023 L 5.899414 75.999023 M 5.899414 77.499023 L 1.897461 75.999023 L 5.899414 74.499023 " transform="matrix(1.333333,0,0,1.333333,1.333333,4)"/>
<path style="fill:none;stroke-width:1;stroke-linecap:butt;stroke-linejoin:round;stroke:rgb(0%,0%,0%);stroke-opacity:1;stroke-dasharray:1,4;stroke-miterlimit:10;" d="M 100.000977 5.897461 L 100.000977 146.100586 " transform="matrix(1.333333,0,0,1.333333,1.333333,4)"/>
<path style="fill:none;stroke-width:1;stroke-linecap:butt;stroke-linejoin:miter;stroke:rgb(0%,0%,0%);stroke-opacity:1;stroke-miterlimit:10;" d="M 100.000977 150.102539 L 100.000977 146.100586 M 101.500977 146.100586 L 100.000977 150.102539 L 98.500977 146.100586 " transform="matrix(1.333333,0,0,1.333333,1.333333,4)"/>
<path style="fill:none;stroke-width:1;stroke-linecap:butt;stroke-linejoin:miter;stroke:rgb(0%,0%,0%);stroke-opacity:1;stroke-miterlimit:10;" d="M 100.000977 1.898438 L 100.000977 5.897461 M 98.500977 5.897461 L 100.000977 1.898438 L 101.500977 5.897461 " transform="matrix(1.333333,0,0,1.333333,1.333333,4)"/>
<path style="fill:none;stroke-width:1;stroke-linecap:butt;stroke-linejoin:round;stroke:rgb(0%,0%,0%);stroke-opacity:1;stroke-miterlimit:10;" d="M 142.72168 54.635742 L 101.339844 75.328125 " transform="matrix(1.333333,0,0,1.333333,1.333333,4)"/>
<path style="fill-rule:nonzero;fill:rgb(0%,0%,0%);fill-opacity:1;stroke-width:1;stroke-linecap:butt;stroke-linejoin:miter;stroke:rgb(0%,0%,0%);stroke-opacity:1;stroke-miterlimit:10;" d="M 100.472656 74.578125 C 101.260742 74.838867 101.682617 75.688477 101.421875 76.473633 C 101.161133 77.261719 100.311523 77.683594 99.526367 77.422852 C 98.738281 77.15918 98.316406 76.3125 98.577148 75.527344 C 98.84082 74.739258 99.6875 74.317383 100.472656 74.578125 " transform="matrix(1.333333,0,0,1.333333,1.333333,4)"/>
<path style="fill:none;stroke-width:1;stroke-linecap:butt;stroke-linejoin:miter;stroke:rgb(0%,0%,0%);stroke-opacity:1;stroke-miterlimit:10;" d="M 146.301758 52.851562 L 142.72168 54.635742 M 142.050781 53.296875 L 146.301758 52.851562 L 143.395508 55.980469 " transform="matrix(1.333333,0,0,1.333333,1.333333,4)"/>
<path style=" stroke:none;fill-rule:nonzero;fill:rgb(0%,0%,0%);fill-opacity:1;" d="M 203.480469 75.269531 C 201.792969 73.855469 201.4375 72.5 201.4375 70.269531 C 201.4375 67.957031 201.8125 66.832031 203.480469 65.417969 L 203.375 65.230469 C 201.457031 66.355469 200.417969 68.082031 200.417969 70.3125 C 200.417969 72.355469 201.4375 74.375 203.332031 75.457031 Z M 203.480469 75.269531 "/>
<path style=" stroke:none;fill-rule:nonzero;fill:rgb(0%,0%,0%);fill-opacity:1;" d="M 209.515625 71.6875 L 209.351562 71.625 C 208.953125 72.292969 208.703125 72.417969 208.203125 72.417969 L 205.390625 72.417969 L 207.371094 70.3125 C 208.433594 69.1875 208.914062 68.292969 208.914062 67.332031 C 208.914062 66.144531 208.039062 65.230469 206.683594 65.230469 C 205.203125 65.230469 204.433594 66.207031 204.183594 67.605469 L 204.433594 67.667969 C 204.914062 66.5 205.351562 66.105469 206.203125 66.105469 C 207.226562 66.105469 207.871094 66.707031 207.871094 67.792969 C 207.871094 68.8125 207.433594 69.730469 206.308594 70.917969 L 204.183594 73.1875 L 204.183594 73.332031 L 208.871094 73.332031 Z M 209.515625 71.6875 "/>
<path style=" stroke:none;fill-rule:nonzero;fill:rgb(0%,0%,0%);fill-opacity:1;" d="M 210.828125 75.019531 C 211.664062 74.625 212.164062 73.875 212.164062 73.144531 C 212.164062 72.519531 211.746094 72.105469 211.203125 72.105469 C 210.789062 72.105469 210.496094 72.375 210.496094 72.792969 C 210.496094 73.207031 210.746094 73.394531 211.183594 73.394531 C 211.308594 73.394531 211.433594 73.355469 211.539062 73.355469 C 211.621094 73.355469 211.703125 73.4375 211.703125 73.519531 C 211.703125 73.917969 211.371094 74.355469 210.703125 74.792969 Z M 210.828125 75.019531 "/>
<path style=" stroke:none;fill-rule:nonzero;fill:rgb(0%,0%,0%);fill-opacity:1;" d="M 220.558594 73.332031 L 220.558594 73.144531 C 219.664062 73.144531 219.414062 72.9375 219.414062 72.417969 L 219.414062 65.25 L 219.308594 65.230469 L 217.164062 66.3125 L 217.164062 66.480469 L 217.476562 66.355469 C 217.703125 66.269531 217.914062 66.207031 218.015625 66.207031 C 218.289062 66.207031 218.390625 66.394531 218.390625 66.8125 L 218.390625 72.1875 C 218.390625 72.855469 218.140625 73.105469 217.246094 73.144531 L 217.246094 73.332031 Z M 220.558594 73.332031 "/>
<path style=" stroke:none;fill-rule:nonzero;fill:rgb(0%,0%,0%);fill-opacity:1;" d="M 222.183594 65.417969 C 223.914062 66.792969 224.226562 68.167969 224.226562 70.394531 C 224.226562 72.730469 223.871094 73.855469 222.183594 75.269531 L 222.289062 75.457031 C 224.183594 74.292969 225.246094 72.582031 225.246094 70.375 C 225.246094 68.332031 224.164062 66.332031 222.328125 65.230469 Z M 222.183594 65.417969 "/>
<path style="fill:none;stroke-width:1;stroke-linecap:round;stroke-linejoin:round;stroke:rgb(0%,0%,0%);stroke-opacity:1;stroke-miterlimit:10;" d="M 120.696289 65.651367 L 94.000977 12.999023 " transform="matrix(1.333333,0,0,1.333333,1.333333,4)"/>
<path style="fill:none;stroke-width:1;stroke-linecap:round;stroke-linejoin:round;stroke:rgb(0%,0%,0%);stroke-opacity:1;stroke-miterlimit:10;" d="M 114.860352 77.52832 L 121.000977 93.999023 " transform="matrix(1.333333,0,0,1.333333,1.333333,4)"/>
<path style="fill-rule:nonzero;fill:rgb(0%,0%,0%);fill-opacity:1;stroke-width:1;stroke-linecap:butt;stroke-linejoin:miter;stroke:rgb(0%,0%,0%);stroke-opacity:1;stroke-miterlimit:10;" d="M 113.46582 73.78125 L 113.457031 78.049805 L 116.266602 77.003906 Z M 113.46582 73.78125 " transform="matrix(1.333333,0,0,1.333333,1.333333,4)"/>
<path style=" stroke:none;fill-rule:nonzero;fill:rgb(0%,0%,0%);fill-opacity:1;" d="M 145.25 87.855469 C 145.25 86.269531 144.5625 85.625 143.605469 85.625 C 143.082031 85.625 142.582031 85.75 141.980469 86.1875 C 140.542969 87.292969 139.019531 89.644531 139.019531 92.519531 C 139.019531 93.9375 139.644531 94.8125 140.730469 94.8125 C 141.667969 94.8125 142.605469 94.394531 143.457031 93.25 C 144.457031 91.9375 145.25 90.019531 145.25 87.855469 Z M 140.625 90.042969 C 140.957031 88.855469 142.269531 85.917969 143.417969 85.917969 C 143.894531 85.917969 144.125 86.457031 144.125 87.3125 C 144.125 88.3125 143.957031 89.269531 143.730469 90.042969 Z M 143.644531 90.457031 C 143.3125 91.769531 142.167969 94.542969 140.894531 94.542969 C 140.394531 94.542969 140.144531 93.855469 140.144531 92.667969 C 140.144531 91.832031 140.269531 91.125 140.542969 90.457031 Z M 143.644531 90.457031 "/>
<path style=" stroke:none;fill-rule:nonzero;fill:rgb(0%,0%,0%);fill-opacity:1;" d="M 166.0625 143.605469 L 166.0625 133.0625 L 165.269531 133.0625 L 165.269531 143.605469 Z M 163.667969 143.605469 L 163.667969 133.0625 L 162.875 133.0625 L 162.875 143.605469 Z M 163.667969 143.605469 "/>
<path style=" stroke:none;fill-rule:nonzero;fill:rgb(0%,0%,0%);fill-opacity:1;" d="M 173.421875 135.792969 L 171.609375 135.792969 L 171.609375 136.082031 C 172.128906 136.105469 172.277344 136.1875 172.277344 136.480469 C 172.277344 136.625 172.234375 136.792969 172.152344 137.019531 L 171.277344 139.207031 L 170.339844 136.769531 C 170.234375 136.542969 170.234375 136.480469 170.234375 136.394531 C 170.234375 136.230469 170.339844 136.144531 170.652344 136.105469 L 170.859375 136.082031 L 170.859375 135.792969 L 167.859375 135.792969 L 167.859375 136.082031 C 168.128906 136.125 168.191406 136.167969 168.277344 136.25 C 168.378906 136.394531 168.816406 137.355469 169.066406 137.957031 L 170.503906 141.5 L 170.816406 141.5 L 172.734375 136.75 C 172.964844 136.1875 173.066406 136.125 173.421875 136.082031 Z M 173.421875 135.792969 "/>
<path style=" stroke:none;fill-rule:nonzero;fill:rgb(0%,0%,0%);fill-opacity:1;" d="M 178.339844 143.605469 L 178.339844 133.0625 L 177.546875 133.0625 L 177.546875 143.605469 Z M 175.941406 143.605469 L 175.941406 133.0625 L 175.152344 133.0625 L 175.152344 143.605469 Z M 175.941406 143.605469 "/>
<path style=" stroke:none;fill-rule:nonzero;fill:rgb(0%,0%,0%);fill-opacity:1;" d="M 185.050781 138.292969 C 185.050781 137.9375 184.738281 137.605469 184.40625 137.605469 C 184.03125 137.605469 183.71875 137.917969 183.71875 138.292969 C 183.71875 138.667969 184.011719 138.9375 184.386719 138.9375 C 184.738281 138.9375 185.050781 138.644531 185.050781 138.292969 Z M 185.050781 138.292969 "/>
<path style=" stroke:none;fill-rule:nonzero;fill:rgb(0%,0%,0%);fill-opacity:1;" d="M 193.65625 139.457031 C 193.09375 140.292969 192.65625 140.582031 191.96875 140.582031 C 190.863281 140.582031 190.113281 139.625 190.113281 138.25 C 190.113281 137 190.761719 136.167969 191.738281 136.167969 C 192.175781 136.167969 192.324219 136.292969 192.449219 136.730469 L 192.53125 137 C 192.613281 137.355469 192.84375 137.5625 193.09375 137.5625 C 193.40625 137.5625 193.65625 137.332031 193.65625 137.042969 C 193.65625 136.375 192.824219 135.8125 191.824219 135.8125 C 191.238281 135.8125 190.675781 136.019531 190.199219 136.417969 C 189.550781 136.957031 189.175781 137.792969 189.175781 138.792969 C 189.175781 140.332031 190.136719 141.457031 191.46875 141.457031 C 191.988281 141.457031 192.425781 141.292969 192.84375 140.957031 C 193.199219 140.667969 193.449219 140.3125 193.824219 139.5625 Z M 193.65625 139.457031 "/>
<path style=" stroke:none;fill-rule:nonzero;fill:rgb(0%,0%,0%);fill-opacity:1;" d="M 199.859375 138.5625 C 199.859375 136.894531 198.734375 135.8125 197.253906 135.8125 C 195.652344 135.8125 194.566406 136.9375 194.566406 138.605469 C 194.566406 140.269531 195.691406 141.457031 197.152344 141.457031 C 198.777344 141.457031 199.859375 140.230469 199.859375 138.5625 Z M 198.777344 138.875 C 198.777344 140.269531 198.253906 141.125 197.359375 141.125 C 196.921875 141.125 196.546875 140.894531 196.277344 140.519531 C 195.839844 139.875 195.652344 139 195.652344 138.0625 C 195.652344 136.855469 196.214844 136.144531 197.027344 136.144531 C 197.546875 136.144531 197.878906 136.394531 198.171875 136.75 C 198.566406 137.25 198.777344 138.0625 198.777344 138.875 Z M 198.777344 138.875 "/>
<path style=" stroke:none;fill-rule:nonzero;fill:rgb(0%,0%,0%);fill-opacity:1;" d="M 202.089844 137.730469 C 201.753906 137.519531 201.566406 137.167969 201.566406 136.894531 C 201.566406 136.332031 201.964844 136.082031 202.464844 136.082031 C 203.191406 136.082031 203.546875 136.480469 203.816406 137.5625 L 204.003906 137.5625 L 203.941406 135.9375 L 203.816406 135.9375 C 203.714844 136.042969 203.671875 136.0625 203.628906 136.0625 C 203.546875 136.0625 203.421875 136.019531 203.277344 135.957031 C 203.027344 135.832031 202.777344 135.832031 202.484375 135.832031 C 201.503906 135.832031 200.816406 136.355469 200.816406 137.292969 C 200.816406 137.917969 201.277344 138.480469 202.253906 139.042969 L 202.921875 139.394531 C 203.316406 139.625 203.546875 139.9375 203.546875 140.292969 C 203.546875 140.792969 203.171875 141.1875 202.546875 141.1875 C 201.734375 141.1875 201.277344 140.667969 201.027344 139.5 L 200.839844 139.5 L 200.839844 141.375 L 200.984375 141.375 C 201.066406 141.269531 201.128906 141.230469 201.277344 141.230469 C 201.421875 141.230469 201.546875 141.25 201.839844 141.355469 C 202.109375 141.4375 202.464844 141.457031 202.714844 141.457031 C 203.628906 141.457031 204.378906 140.75 204.378906 139.957031 C 204.378906 139.269531 204.109375 138.9375 203.339844 138.480469 Z M 202.089844 137.730469 "/>
<path style=" stroke:none;fill-rule:nonzero;fill:rgb(0%,0%,0%);fill-opacity:1;" d="M 208.527344 143.269531 C 206.839844 141.855469 206.484375 140.5 206.484375 138.269531 C 206.484375 135.957031 206.859375 134.832031 208.527344 133.417969 L 208.421875 133.230469 C 206.507812 134.355469 205.464844 136.082031 205.464844 138.3125 C 205.464844 140.355469 206.484375 142.375 208.382812 143.457031 Z M 208.527344 143.269531 "/>
<path style=" stroke:none;fill-rule:nonzero;fill:rgb(0%,0%,0%);fill-opacity:1;" d="M 214.816406 135.207031 C 214.816406 133.769531 214.191406 133.1875 213.335938 133.1875 C 212.855469 133.1875 212.398438 133.3125 211.855469 133.707031 C 210.566406 134.6875 209.210938 136.8125 209.210938 139.394531 C 209.210938 140.667969 209.773438 141.457031 210.730469 141.457031 C 211.585938 141.457031 212.417969 141.082031 213.191406 140.0625 C 214.085938 138.875 214.816406 137.144531 214.816406 135.207031 Z M 210.648438 137.167969 C 210.941406 136.105469 212.128906 133.457031 213.167969 133.457031 C 213.585938 133.457031 213.792969 133.9375 213.792969 134.707031 C 213.792969 135.605469 213.648438 136.480469 213.441406 137.167969 Z M 213.355469 137.5625 C 213.066406 138.730469 212.023438 141.207031 210.878906 141.207031 C 210.441406 141.207031 210.210938 140.605469 210.210938 139.542969 C 210.210938 138.769531 210.335938 138.144531 210.566406 137.5625 Z M 213.355469 137.5625 "/>
<path style=" stroke:none;fill-rule:nonzero;fill:rgb(0%,0%,0%);fill-opacity:1;" d="M 214.992188 133.417969 C 216.71875 134.792969 217.03125 136.167969 217.03125 138.394531 C 217.03125 140.730469 216.679688 141.855469 214.992188 143.269531 L 215.09375 143.457031 C 216.992188 142.292969 218.054688 140.582031 218.054688 138.375 C 218.054688 136.332031 216.96875 134.332031 215.136719 133.230469 Z M 214.992188 133.417969 "/>
<path style=" stroke:none;fill-rule:nonzero;fill:rgb(0%,0%,0%);fill-opacity:1;" d="M 123.144531 13.125 L 121.332031 13.125 L 121.332031 13.417969 C 121.855469 13.4375 122 13.519531 122 13.8125 C 122 13.957031 121.957031 14.125 121.875 14.355469 L 121 16.542969 L 120.0625 14.105469 C 119.957031 13.875 119.957031 13.8125 119.957031 13.730469 C 119.957031 13.5625 120.0625 13.480469 120.375 13.4375 L 120.582031 13.417969 L 120.582031 13.125 L 117.582031 13.125 L 117.582031 13.417969 C 117.855469 13.457031 117.917969 13.5 118 13.582031 C 118.105469 13.730469 118.542969 14.6875 118.792969 15.292969 L 120.230469 18.832031 L 120.542969 18.832031 L 122.457031 14.082031 C 122.6875 13.519531 122.792969 13.457031 123.144531 13.417969 Z M 123.144531 13.125 "/>
</g>
</svg>
