<?xml version="1.0" encoding="UTF-8"?>
<svg xmlns="http://www.w3.org/2000/svg" xmlns:xlink="http://www.w3.org/1999/xlink" width="489.333333" height="204" viewBox="0 0 489.333333 204" version="1.1">
<g id="surface1">
<path style="fill:none;stroke-width:1;stroke-linecap:butt;stroke-linejoin:round;stroke:rgb(0%,0%,0%);stroke-opacity:1;stroke-dasharray:1,4;stroke-miterlimit:10;" d="M -0.000976562 3.999023 L 143.999023 3.999023 " transform="matrix(1.333333,0,0,1.333333,1.333333,100)"/>
<path style="fill:none;stroke-width:1;stroke-linecap:butt;stroke-linejoin:round;stroke:rgb(0%,0%,0%);stroke-opacity:1;stroke-dasharray:1,4;stroke-miterlimit:10;" d="M 71 -66.999023 L 71 77.000977 " transform="matrix(1.333333,0,0,1.333333,1.333333,100)"/>
<path style="fill:none;stroke-width:1;stroke-linecap:butt;stroke-linejoin:round;stroke:rgb(0%,0%,0%);stroke-opacity:1;stroke-dasharray:1,4;stroke-miterlimit:10;" d="M 95 -66.999023 L 95 77.000977 " transform="matrix(1.333333,0,0,1.333333,1.333333,100)"/>
<path style="fill:none;stroke-width:1;stroke-linecap:butt;stroke-linejoin:round;stroke:rgb(0%,0%,0%);stroke-opacity:1;stroke-dasharray:1,4;stroke-miterlimit:10;" d="M 119 -66.999023 L 119 77.000977 " transform="matrix(1.333333,0,0,1.333333,1.333333,100)"/>
<path style="fill:none;stroke-width:1;stroke-linecap:butt;stroke-linejoin:round;stroke:rgb(0%,0%,0%);stroke-opacity:1;stroke-dasharray:1,4;stroke-miterlimit:10;" d="M 47 -66.999023 L 47 77.000977 " transform="matrix(1.333333,0,0,1.333333,1.333333,100)"/>
<path style="fill:none;stroke-width:1;stroke-linecap:butt;stroke-linejoin:round;stroke:rgb(0%,0%,0%);stroke-opacity:1;stroke-dasharray:1,4;stroke-miterlimit:10;" d="M 23 -66.999023 L 23 77.000977 " transform="matrix(1.333333,0,0,1.333333,1.333333,100)"/>
<path style="fill:none;stroke-width:1;stroke-linecap:butt;stroke-linejoin:round;stroke:rgb(0%,0%,0%);stroke-opacity:1;stroke-dasharray:1,4;stroke-miterlimit:10;" d="M -0.000976562 -20.000977 L 143.999023 -20.000977 " transform="matrix(1.333333,0,0,1.333333,1.333333,100)"/>
<path style="fill:none;stroke-width:1;stroke-linecap:butt;stroke-linejoin:round;stroke:rgb(0%,0%,0%);stroke-opacity:1;stroke-dasharray:1,4;stroke-miterlimit:10;" d="M -0.000976562 -44.000977 L 143.999023 -44.000977 " transform="matrix(1.333333,0,0,1.333333,1.333333,100)"/>
<path style="fill:none;stroke-width:1;stroke-linecap:butt;stroke-linejoin:round;stroke:rgb(0%,0%,0%);stroke-opacity:1;stroke-dasharray:1,4;stroke-miterlimit:10;" d="M -0.000976562 27.999023 L 143.999023 27.999023 " transform="matrix(1.333333,0,0,1.333333,1.333333,100)"/>
<path style="fill:none;stroke-width:1;stroke-linecap:butt;stroke-linejoin:round;stroke:rgb(0%,0%,0%);stroke-opacity:1;stroke-dasharray:1,4;stroke-miterlimit:10;" d="M -0.000976562 51.999023 L 143.999023 51.999023 " transform="matrix(1.333333,0,0,1.333333,1.333333,100)"/>
<path style="fill:none;stroke-width:1;stroke-linecap:butt;stroke-linejoin:round;stroke:rgb(0%,0%,0%);stroke-opacity:1;stroke-miterlimit:10;" d="M 71 -14.100586 L 71 2.499023 " transform="matrix(1.333333,0,0,1.333333,1.333333,100)"/>
<path style="fill-rule:nonzero;fill:rgb(0%,0%,0%);fill-opacity:1;stroke-width:1;stroke-linecap:butt;stroke-linejoin:miter;stroke:rgb(0%,0%,0%);stroke-opacity:1;stroke-miterlimit:10;" d="M 69.936523 2.938477 C 70.522461 2.355469 71.477539 2.355469 72.063477 2.938477 C 72.643555 3.524414 72.643555 4.476562 72.063477 5.0625 C 71.477539 5.645508 70.522461 5.645508 69.936523 5.0625 C 69.356445 4.476562 69.356445 3.524414 69.936523 2.938477 " transform="matrix(1.333333,0,0,1.333333,1.333333,100)"/>
<path style="fill:none;stroke-width:1;stroke-linecap:butt;stroke-linejoin:miter;stroke:rgb(0%,0%,0%);stroke-opacity:1;stroke-miterlimit:10;" d="M 71 -18.102539 L 71 -14.100586 M 69.5 -14.100586 L 71 -18.102539 L 72.5 -14.100586 " transform="matrix(1.333333,0,0,1.333333,1.333333,100)"/>
<path style="fill:none;stroke-width:1;stroke-linecap:butt;stroke-linejoin:round;stroke:rgb(0%,0%,0%);stroke-opacity:1;stroke-miterlimit:10;" d="M 89.102539 3.999023 L 72.5 3.999023 " transform="matrix(1.333333,0,0,1.333333,1.333333,100)"/>
<path style="fill-rule:nonzero;fill:rgb(0%,0%,0%);fill-opacity:1;stroke-width:1;stroke-linecap:butt;stroke-linejoin:miter;stroke:rgb(0%,0%,0%);stroke-opacity:1;stroke-miterlimit:10;" d="M 72.063477 2.938477 C 72.643555 3.524414 72.643555 4.476562 72.063477 5.0625 C 71.477539 5.645508 70.522461 5.645508 69.936523 5.0625 C 69.356445 4.476562 69.356445 3.524414 69.936523 2.938477 C 70.522461 2.355469 71.477539 2.355469 72.063477 2.938477 " transform="matrix(1.333333,0,0,1.333333,1.333333,100)"/>
<path style="fill:none;stroke-width:1;stroke-linecap:butt;stroke-linejoin:miter;stroke:rgb(0%,0%,0%);stroke-opacity:1;stroke-miterlimit:10;" d="M 93.101562 3.999023 L 89.102539 3.999023 M 89.102539 2.499023 L 93.101562 3.999023 L 89.102539 5.499023 " transform="matrix(1.333333,0,0,1.333333,1.333333,100)"/>
<path style="fill:none;stroke-width:1;stroke-linecap:butt;stroke-linejoin:round;stroke:rgb(0%,0%,0%);stroke-opacity:1;stroke-miterlimit:10;" d="M 321.725586 -63.09082 L 277.833008 2.750977 " transform="matrix(1.333333,0,0,1.333333,1.333333,100)"/>
<path style="fill-rule:nonzero;fill:rgb(0%,0%,0%);fill-opacity:1;stroke-width:1;stroke-linecap:butt;stroke-linejoin:miter;stroke:rgb(0%,0%,0%);stroke-opacity:1;stroke-miterlimit:10;" d="M 276.708008 2.52832 C 277.519531 2.367188 278.307617 2.894531 278.47168 3.706055 C 278.632812 4.520508 278.105469 5.308594 277.293945 5.472656 C 276.479492 5.633789 275.691406 5.106445 275.527344 4.291992 C 275.366211 3.480469 275.893555 2.692383 276.708008 2.52832 " transform="matrix(1.333333,0,0,1.333333,1.333333,100)"/>
<path style="fill:none;stroke-width:1;stroke-linecap:butt;stroke-linejoin:miter;stroke:rgb(0%,0%,0%);stroke-opacity:1;stroke-miterlimit:10;" d="M 323.946289 -66.418945 L 321.725586 -63.09082 M 320.480469 -63.922852 L 323.946289 -66.418945 L 322.976562 -62.258789 " transform="matrix(1.333333,0,0,1.333333,1.333333,100)"/>
<path style="fill:none;stroke-width:1;stroke-linecap:butt;stroke-linejoin:round;stroke:rgb(0%,0%,0%);stroke-opacity:1;stroke-miterlimit:10;" d="M 296.829102 23.827148 L 278.061523 5.0625 " transform="matrix(1.333333,0,0,1.333333,1.333333,100)"/>
<path style="fill-rule:nonzero;fill:rgb(0%,0%,0%);fill-opacity:1;stroke-width:1;stroke-linecap:butt;stroke-linejoin:miter;stroke:rgb(0%,0%,0%);stroke-opacity:1;stroke-miterlimit:10;" d="M 278.500977 3.999023 C 278.500977 4.828125 277.827148 5.499023 277.000977 5.499023 C 276.171875 5.499023 275.500977 4.828125 275.500977 3.999023 C 275.500977 3.172852 276.171875 2.499023 277.000977 2.499023 C 277.827148 2.499023 278.500977 3.172852 278.500977 3.999023 " transform="matrix(1.333333,0,0,1.333333,1.333333,100)"/>
<path style="fill:none;stroke-width:1;stroke-linecap:butt;stroke-linejoin:miter;stroke:rgb(0%,0%,0%);stroke-opacity:1;stroke-miterlimit:10;" d="M 299.65625 26.657227 L 296.829102 23.827148 M 297.889648 22.766602 L 299.65625 26.657227 L 295.765625 24.890625 " transform="matrix(1.333333,0,0,1.333333,1.333333,100)"/>
<path style="fill:none;stroke-width:1;stroke-linecap:butt;stroke-linejoin:round;stroke:rgb(0%,0%,0%);stroke-opacity:1;stroke-dasharray:1,4;stroke-miterlimit:10;" d="M 325.000977 -68.000977 L 229.000977 75.999023 " transform="matrix(1.333333,0,0,1.333333,1.333333,100)"/>
<path style="fill:none;stroke-width:1;stroke-linecap:butt;stroke-linejoin:round;stroke:rgb(0%,0%,0%);stroke-opacity:1;stroke-dasharray:1,4;stroke-miterlimit:10;" d="M 349.000977 75.999023 L 205.000977 -68.000977 " transform="matrix(1.333333,0,0,1.333333,1.333333,100)"/>
<path style="fill:none;stroke-width:1;stroke-linecap:butt;stroke-linejoin:round;stroke:rgb(0%,0%,0%);stroke-opacity:1;stroke-dasharray:1,4;stroke-miterlimit:10;" d="M 229.499023 75.999023 L 200.301758 46.801758 " transform="matrix(1.333333,0,0,1.333333,1.333333,100)"/>
<path style="fill:none;stroke-width:1;stroke-linecap:butt;stroke-linejoin:round;stroke:rgb(0%,0%,0%);stroke-opacity:1;stroke-dasharray:1,4;stroke-miterlimit:10;" d="M 245 -68.000977 L 200.120117 -0.679688 " transform="matrix(1.333333,0,0,1.333333,1.333333,100)"/>
<path style="fill:none;stroke-width:1;stroke-linecap:butt;stroke-linejoin:round;stroke:rgb(0%,0%,0%);stroke-opacity:1;stroke-dasharray:1,4;stroke-miterlimit:10;" d="M 284.999023 -68.000977 L 200.043945 59.4375 " transform="matrix(1.333333,0,0,1.333333,1.333333,100)"/>
<path style="fill:none;stroke-width:1;stroke-linecap:butt;stroke-linejoin:round;stroke:rgb(0%,0%,0%);stroke-opacity:1;stroke-dasharray:1,4;stroke-miterlimit:10;" d="M 352.088867 -48.632812 L 269 75.999023 " transform="matrix(1.333333,0,0,1.333333,1.333333,100)"/>
<path style="fill:none;stroke-width:1;stroke-linecap:butt;stroke-linejoin:round;stroke:rgb(0%,0%,0%);stroke-opacity:1;stroke-dasharray:1,4;stroke-miterlimit:10;" d="M 354.242188 -39 L 325.000977 -68.000977 " transform="matrix(1.333333,0,0,1.333333,1.333333,100)"/>
<path style="fill:none;stroke-width:1;stroke-linecap:butt;stroke-linejoin:round;stroke:rgb(0%,0%,0%);stroke-opacity:1;stroke-dasharray:1,4;stroke-miterlimit:10;" d="M 355.000977 6.999023 L 308.999023 75.999023 " transform="matrix(1.333333,0,0,1.333333,1.333333,100)"/>
<path style="fill:none;stroke-width:1;stroke-linecap:butt;stroke-linejoin:round;stroke:rgb(0%,0%,0%);stroke-opacity:1;stroke-miterlimit:10;" d="M 181.100586 3.999023 L 163.000977 3.999023 " transform="matrix(1.333333,0,0,1.333333,1.333333,100)"/>
<path style="fill:none;stroke-width:1;stroke-linecap:butt;stroke-linejoin:miter;stroke:rgb(0%,0%,0%);stroke-opacity:1;stroke-miterlimit:10;" d="M 185.102539 3.999023 L 181.100586 3.999023 M 181.100586 2.499023 L 185.102539 3.999023 L 181.100586 5.499023 " transform="matrix(1.333333,0,0,1.333333,1.333333,100)"/>
<path style=" stroke:none;fill-rule:nonzero;fill:rgb(0%,0%,0%);fill-opacity:1;" d="M 237.9375 98.835938 L 237.9375 98.542969 C 237.4375 98.542969 237.230469 98.273438 236.625 96.8125 L 233.960938 90.5625 L 233.625 90.5625 L 230.960938 97.085938 C 230.5 98.230469 230.335938 98.4375 229.773438 98.542969 L 229.773438 98.835938 L 232.210938 98.835938 L 232.210938 98.542969 C 231.5 98.480469 231.230469 98.355469 231.230469 98.042969 C 231.230469 97.75 231.460938 97.25 231.605469 96.875 L 231.75 96.480469 L 234.460938 96.480469 C 234.855469 97.417969 235 97.835938 235 98.105469 C 235 98.375 234.855469 98.460938 234.460938 98.5 L 234.0625 98.542969 L 234.0625 98.835938 Z M 234.273438 96 L 231.9375 96 L 233.0625 93.085938 Z M 234.273438 96 "/>
<path style=" stroke:none;fill-rule:nonzero;fill:rgb(0%,0%,0%);fill-opacity:1;" d="M 101.820312 67.9375 C 100.132812 66.519531 99.777344 65.167969 99.777344 62.9375 C 99.777344 60.625 100.152344 59.5 101.820312 58.082031 L 101.714844 57.894531 C 99.800781 59.019531 98.757812 60.75 98.757812 62.980469 C 98.757812 65.019531 99.777344 67.042969 101.675781 68.125 Z M 101.820312 67.9375 "/>
<path style=" stroke:none;fill-rule:nonzero;fill:rgb(0%,0%,0%);fill-opacity:1;" d="M 107.878906 62.042969 C 107.878906 59.582031 106.796875 57.894531 105.210938 57.894531 C 103.296875 57.894531 102.460938 59.855469 102.460938 61.957031 C 102.460938 63.9375 103.128906 66.167969 105.171875 66.167969 C 107.128906 66.167969 107.878906 64.105469 107.878906 62.042969 Z M 106.734375 62.105469 C 106.734375 64.480469 106.191406 65.855469 105.171875 65.855469 C 104.128906 65.855469 103.609375 64.480469 103.609375 62.042969 C 103.609375 59.625 104.148438 58.207031 105.148438 58.207031 C 106.210938 58.207031 106.734375 59.605469 106.734375 62.105469 Z M 106.734375 62.105469 "/>
<path style=" stroke:none;fill-rule:nonzero;fill:rgb(0%,0%,0%);fill-opacity:1;" d="M 109.171875 67.6875 C 110.003906 67.292969 110.503906 66.542969 110.503906 65.8125 C 110.503906 65.1875 110.085938 64.769531 109.546875 64.769531 C 109.128906 64.769531 108.835938 65.042969 108.835938 65.457031 C 108.835938 65.875 109.085938 66.0625 109.523438 66.0625 C 109.648438 66.0625 109.773438 66.019531 109.878906 66.019531 C 109.960938 66.019531 110.046875 66.105469 110.046875 66.1875 C 110.046875 66.582031 109.710938 67.019531 109.046875 67.457031 Z M 109.171875 67.6875 "/>
<path style=" stroke:none;fill-rule:nonzero;fill:rgb(0%,0%,0%);fill-opacity:1;" d="M 118.898438 66 L 118.898438 65.8125 C 118.003906 65.8125 117.753906 65.605469 117.753906 65.082031 L 117.753906 57.917969 L 117.648438 57.894531 L 115.503906 58.980469 L 115.503906 59.144531 L 115.816406 59.019531 C 116.046875 58.9375 116.253906 58.875 116.359375 58.875 C 116.628906 58.875 116.734375 59.0625 116.734375 59.480469 L 116.734375 64.855469 C 116.734375 65.519531 116.484375 65.769531 115.585938 65.8125 L 115.585938 66 Z M 118.898438 66 "/>
<path style=" stroke:none;fill-rule:nonzero;fill:rgb(0%,0%,0%);fill-opacity:1;" d="M 120.523438 58.082031 C 122.253906 59.457031 122.566406 60.832031 122.566406 63.0625 C 122.566406 65.394531 122.210938 66.519531 120.523438 67.9375 L 120.628906 68.125 C 122.523438 66.957031 123.585938 65.25 123.585938 63.042969 C 123.585938 61 122.503906 59 120.671875 57.894531 Z M 120.523438 58.082031 "/>
<path style=" stroke:none;fill-rule:nonzero;fill:rgb(0%,0%,0%);fill-opacity:1;" d="M 133.984375 103.269531 C 132.296875 101.855469 131.941406 100.5 131.941406 98.269531 C 131.941406 95.957031 132.316406 94.832031 133.984375 93.417969 L 133.878906 93.230469 C 131.960938 94.355469 130.921875 96.082031 130.921875 98.3125 C 130.921875 100.355469 131.941406 102.375 133.835938 103.457031 Z M 133.984375 103.269531 "/>
<path style=" stroke:none;fill-rule:nonzero;fill:rgb(0%,0%,0%);fill-opacity:1;" d="M 139.0625 101.332031 L 139.0625 101.144531 C 138.167969 101.144531 137.917969 100.9375 137.917969 100.417969 L 137.917969 93.25 L 137.8125 93.230469 L 135.667969 94.3125 L 135.667969 94.480469 L 135.980469 94.355469 C 136.207031 94.269531 136.417969 94.207031 136.519531 94.207031 C 136.792969 94.207031 136.894531 94.394531 136.894531 94.8125 L 136.894531 100.1875 C 136.894531 100.855469 136.644531 101.105469 135.75 101.144531 L 135.75 101.332031 Z M 139.0625 101.332031 "/>
<path style=" stroke:none;fill-rule:nonzero;fill:rgb(0%,0%,0%);fill-opacity:1;" d="M 141.332031 103.019531 C 142.167969 102.625 142.667969 101.875 142.667969 101.144531 C 142.667969 100.519531 142.25 100.105469 141.707031 100.105469 C 141.292969 100.105469 141 100.375 141 100.792969 C 141 101.207031 141.25 101.394531 141.6875 101.394531 C 141.8125 101.394531 141.9375 101.355469 142.042969 101.355469 C 142.125 101.355469 142.207031 101.4375 142.207031 101.519531 C 142.207031 101.917969 141.875 102.355469 141.207031 102.792969 Z M 141.332031 103.019531 "/>
<path style=" stroke:none;fill-rule:nonzero;fill:rgb(0%,0%,0%);fill-opacity:1;" d="M 152.042969 97.375 C 152.042969 94.917969 150.957031 93.230469 149.375 93.230469 C 147.457031 93.230469 146.625 95.1875 146.625 97.292969 C 146.625 99.269531 147.292969 101.5 149.332031 101.5 C 151.292969 101.5 152.042969 99.4375 152.042969 97.375 Z M 150.894531 97.4375 C 150.894531 99.8125 150.355469 101.1875 149.332031 101.1875 C 148.292969 101.1875 147.769531 99.8125 147.769531 97.375 C 147.769531 94.957031 148.3125 93.542969 149.3125 93.542969 C 150.375 93.542969 150.894531 94.9375 150.894531 97.4375 Z M 150.894531 97.4375 "/>
<path style=" stroke:none;fill-rule:nonzero;fill:rgb(0%,0%,0%);fill-opacity:1;" d="M 152.6875 93.417969 C 154.417969 94.792969 154.730469 96.167969 154.730469 98.394531 C 154.730469 100.730469 154.375 101.855469 152.6875 103.269531 L 152.792969 103.457031 C 154.6875 102.292969 155.75 100.582031 155.75 98.375 C 155.75 96.332031 154.667969 94.332031 152.832031 93.230469 Z M 152.6875 93.417969 "/>
<path style=" stroke:none;fill-rule:nonzero;fill:rgb(0%,0%,0%);fill-opacity:1;" d="M 409.480469 143.269531 C 407.792969 141.855469 407.441406 140.5 407.441406 138.269531 C 407.441406 135.957031 407.816406 134.832031 409.480469 133.417969 L 409.378906 133.230469 C 407.460938 134.355469 406.417969 136.082031 406.417969 138.3125 C 406.417969 140.355469 407.441406 142.375 409.335938 143.457031 Z M 409.480469 143.269531 "/>
<path style=" stroke:none;fill-rule:nonzero;fill:rgb(0%,0%,0%);fill-opacity:1;" d="M 414.558594 141.332031 L 414.558594 141.144531 C 413.664062 141.144531 413.414062 140.9375 413.414062 140.417969 L 413.414062 133.25 L 413.308594 133.230469 L 411.164062 134.3125 L 411.164062 134.480469 L 411.476562 134.355469 C 411.707031 134.269531 411.914062 134.207031 412.019531 134.207031 C 412.289062 134.207031 412.394531 134.394531 412.394531 134.8125 L 412.394531 140.1875 C 412.394531 140.855469 412.144531 141.105469 411.246094 141.144531 L 411.246094 141.332031 Z M 414.558594 141.332031 "/>
<path style=" stroke:none;fill-rule:nonzero;fill:rgb(0%,0%,0%);fill-opacity:1;" d="M 416.832031 143.019531 C 417.664062 142.625 418.164062 141.875 418.164062 141.144531 C 418.164062 140.519531 417.746094 140.105469 417.207031 140.105469 C 416.789062 140.105469 416.496094 140.375 416.496094 140.792969 C 416.496094 141.207031 416.746094 141.394531 417.183594 141.394531 C 417.308594 141.394531 417.433594 141.355469 417.539062 141.355469 C 417.621094 141.355469 417.707031 141.4375 417.707031 141.519531 C 417.707031 141.917969 417.371094 142.355469 416.707031 142.792969 Z M 416.832031 143.019531 "/>
<path style=" stroke:none;fill-rule:nonzero;fill:rgb(0%,0%,0%);fill-opacity:1;" d="M 425.246094 139 L 425.246094 138.25 L 422.289062 138.25 L 422.289062 139 Z M 425.246094 139 "/>
<path style=" stroke:none;fill-rule:nonzero;fill:rgb(0%,0%,0%);fill-opacity:1;" d="M 430.554688 141.332031 L 430.554688 141.144531 C 429.660156 141.144531 429.410156 140.9375 429.410156 140.417969 L 429.410156 133.25 L 429.304688 133.230469 L 427.160156 134.3125 L 427.160156 134.480469 L 427.472656 134.355469 C 427.703125 134.269531 427.910156 134.207031 428.015625 134.207031 C 428.285156 134.207031 428.390625 134.394531 428.390625 134.8125 L 428.390625 140.1875 C 428.390625 140.855469 428.140625 141.105469 427.242188 141.144531 L 427.242188 141.332031 Z M 430.554688 141.332031 "/>
<path style=" stroke:none;fill-rule:nonzero;fill:rgb(0%,0%,0%);fill-opacity:1;" d="M 432.179688 133.417969 C 433.910156 134.792969 434.222656 136.167969 434.222656 138.394531 C 434.222656 140.730469 433.867188 141.855469 432.179688 143.269531 L 432.285156 143.457031 C 434.179688 142.292969 435.242188 140.582031 435.242188 138.375 C 435.242188 136.332031 434.160156 134.332031 432.328125 133.230469 Z M 432.179688 133.417969 "/>
<path style=" stroke:none;fill-rule:nonzero;fill:rgb(0%,0%,0%);fill-opacity:1;" d="M 403.480469 20.605469 C 401.792969 19.1875 401.4375 17.832031 401.4375 15.605469 C 401.4375 13.292969 401.8125 12.167969 403.480469 10.75 L 403.375 10.5625 C 401.457031 11.6875 400.417969 13.417969 400.417969 15.644531 C 400.417969 17.6875 401.4375 19.707031 403.332031 20.792969 Z M 403.480469 20.605469 "/>
<path style=" stroke:none;fill-rule:nonzero;fill:rgb(0%,0%,0%);fill-opacity:1;" d="M 409.515625 17.019531 L 409.351562 16.957031 C 408.953125 17.625 408.703125 17.75 408.203125 17.75 L 405.390625 17.75 L 407.371094 15.644531 C 408.433594 14.519531 408.914062 13.625 408.914062 12.667969 C 408.914062 11.480469 408.039062 10.5625 406.683594 10.5625 C 405.203125 10.5625 404.433594 11.542969 404.183594 12.9375 L 404.433594 13 C 404.914062 11.832031 405.351562 11.4375 406.203125 11.4375 C 407.226562 11.4375 407.871094 12.042969 407.871094 13.125 C 407.871094 14.144531 407.433594 15.0625 406.308594 16.25 L 404.183594 18.519531 L 404.183594 18.667969 L 408.871094 18.667969 Z M 409.515625 17.019531 "/>
<path style=" stroke:none;fill-rule:nonzero;fill:rgb(0%,0%,0%);fill-opacity:1;" d="M 410.828125 20.355469 C 411.664062 19.957031 412.164062 19.207031 412.164062 18.480469 C 412.164062 17.855469 411.746094 17.4375 411.203125 17.4375 C 410.789062 17.4375 410.496094 17.707031 410.496094 18.125 C 410.496094 18.542969 410.746094 18.730469 411.183594 18.730469 C 411.308594 18.730469 411.433594 18.6875 411.539062 18.6875 C 411.621094 18.6875 411.703125 18.769531 411.703125 18.855469 C 411.703125 19.25 411.371094 19.6875 410.703125 20.125 Z M 410.828125 20.355469 "/>
<path style=" stroke:none;fill-rule:nonzero;fill:rgb(0%,0%,0%);fill-opacity:1;" d="M 416.558594 12.542969 C 417.058594 11.667969 417.601562 11.269531 418.351562 11.269531 C 419.140625 11.269531 419.640625 11.6875 419.640625 12.5 C 419.640625 13.230469 419.265625 13.769531 418.683594 14.105469 C 418.433594 14.25 418.121094 14.375 417.664062 14.542969 L 417.664062 14.707031 C 418.351562 14.707031 418.621094 14.75 418.890625 14.832031 C 419.726562 15.0625 420.140625 15.644531 420.140625 16.5625 C 420.140625 17.582031 419.476562 18.394531 418.578125 18.394531 C 418.246094 18.394531 417.996094 18.332031 417.539062 18.019531 C 417.203125 17.792969 417.015625 17.707031 416.808594 17.707031 C 416.539062 17.707031 416.328125 17.894531 416.328125 18.144531 C 416.328125 18.582031 416.789062 18.832031 417.664062 18.832031 C 418.726562 18.832031 419.871094 18.480469 420.453125 17.707031 C 420.789062 17.269531 420.996094 16.667969 420.996094 16.042969 C 420.996094 15.417969 420.808594 14.855469 420.476562 14.5 C 420.226562 14.230469 419.996094 14.082031 419.476562 13.855469 C 420.289062 13.375 420.601562 12.769531 420.601562 12.207031 C 420.601562 11.207031 419.828125 10.5625 418.726562 10.5625 C 417.476562 10.5625 416.726562 11.355469 416.371094 12.5 Z M 416.558594 12.542969 "/>
<path style=" stroke:none;fill-rule:nonzero;fill:rgb(0%,0%,0%);fill-opacity:1;" d="M 422.183594 10.75 C 423.914062 12.125 424.226562 13.5 424.226562 15.730469 C 424.226562 18.0625 423.871094 19.1875 422.183594 20.605469 L 422.289062 20.792969 C 424.183594 19.625 425.246094 17.917969 425.246094 15.707031 C 425.246094 13.667969 424.164062 11.667969 422.328125 10.5625 Z M 422.183594 10.75 "/>
</g>
</svg>
