<?xml version="1.0" encoding="UTF-8"?>
<svg xmlns="http://www.w3.org/2000/svg" xmlns:xlink="http://www.w3.org/1999/xlink" width="269.333333" height="205.333333" viewBox="0 0 269.333333 205.333333" version="1.1">
<g id="surface1">
<path style="fill:none;stroke-width:1;stroke-linecap:butt;stroke-linejoin:round;stroke:rgb(0%,0%,0%);stroke-opacity:1;stroke-miterlimit:10;" d="M 142.71875 97.370117 L 101.342773 76.774414 " transform="matrix(1.333333,0,0,1.333333,1.333333,1.333333)"/>
<path style="fill-rule:nonzero;fill:rgb(0%,0%,0%);fill-opacity:1;stroke-width:1;stroke-linecap:butt;stroke-linejoin:miter;stroke:rgb(0%,0%,0%);stroke-opacity:1;stroke-miterlimit:10;" d="M 101.421875 75.628906 C 101.682617 76.414062 101.260742 77.260742 100.475586 77.527344 C 99.69043 77.788086 98.84082 77.366211 98.577148 76.581055 C 98.316406 75.795898 98.738281 74.946289 99.523438 74.682617 C 100.308594 74.418945 101.161133 74.84375 101.421875 75.628906 " transform="matrix(1.333333,0,0,1.333333,1.333333,1.333333)"/>
<path style="fill:none;stroke-width:1;stroke-linecap:butt;stroke-linejoin:miter;stroke:rgb(0%,0%,0%);stroke-opacity:1;stroke-miterlimit:10;" d="M 146.301758 99.151367 L 142.71875 97.370117 M 143.386719 96.02832 L 146.301758 99.151367 L 142.050781 98.714844 " transform="matrix(1.333333,0,0,1.333333,1.333333,1.333333)"/>
<path style="fill:none;stroke-width:1;stroke-linecap:butt;stroke-linejoin:round;stroke:rgb(0%,0%,0%);stroke-opacity:1;stroke-miterlimit:10;" d="M 5.899414 76.000977 L 194.102539 76.000977 " transform="matrix(1.333333,0,0,1.333333,1.333333,1.333333)"/>
<path style="fill:none;stroke-width:1;stroke-linecap:butt;stroke-linejoin:miter;stroke:rgb(0%,0%,0%);stroke-opacity:1;stroke-miterlimit:10;" d="M 198.101562 76.000977 L 194.102539 76.000977 M 194.102539 74.500977 L 198.101562 76.000977 L 194.102539 77.500977 " transform="matrix(1.333333,0,0,1.333333,1.333333,1.333333)"/>
<path style="fill:none;stroke-width:1;stroke-linecap:butt;stroke-linejoin:miter;stroke:rgb(0%,0%,0%);stroke-opacity:1;stroke-miterlimit:10;" d="M 1.897461 76.000977 L 5.899414 76.000977 M 5.899414 77.500977 L 1.897461 76.000977 L 5.899414 74.500977 " transform="matrix(1.333333,0,0,1.333333,1.333333,1.333333)"/>
<path style="fill:none;stroke-width:1;stroke-linecap:butt;stroke-linejoin:round;stroke:rgb(0%,0%,0%);stroke-opacity:1;stroke-miterlimit:10;" d="M 100.000977 5.899414 L 100.000977 146.102539 " transform="matrix(1.333333,0,0,1.333333,1.333333,1.333333)"/>
<path style="fill:none;stroke-width:1;stroke-linecap:butt;stroke-linejoin:miter;stroke:rgb(0%,0%,0%);stroke-opacity:1;stroke-miterlimit:10;" d="M 100.000977 150.101562 L 100.000977 146.102539 M 101.500977 146.102539 L 100.000977 150.101562 L 98.500977 146.102539 " transform="matrix(1.333333,0,0,1.333333,1.333333,1.333333)"/>
<path style="fill:none;stroke-width:1;stroke-linecap:butt;stroke-linejoin:miter;stroke:rgb(0%,0%,0%);stroke-opacity:1;stroke-miterlimit:10;" d="M 100.000977 1.897461 L 100.000977 5.899414 M 98.500977 5.899414 L 100.000977 1.897461 L 101.500977 5.899414 " transform="matrix(1.333333,0,0,1.333333,1.333333,1.333333)"/>
<path style="fill:none;stroke-width:1;stroke-linecap:butt;stroke-linejoin:round;stroke:rgb(0%,0%,0%);stroke-opacity:1;stroke-dasharray:1,4;stroke-miterlimit:10;" d="M 124.000977 8 L 124.000977 143.999023 " transform="matrix(1.333333,0,0,1.333333,1.333333,1.333333)"/>
<path style="fill:none;stroke-width:1;stroke-linecap:butt;stroke-linejoin:round;stroke:rgb(0%,0%,0%);stroke-opacity:1;stroke-dasharray:1,4;stroke-miterlimit:10;" d="M 148.000977 8 L 148.000977 143.999023 " transform="matrix(1.333333,0,0,1.333333,1.333333,1.333333)"/>
<path style="fill:none;stroke-width:1;stroke-linecap:butt;stroke-linejoin:round;stroke:rgb(0%,0%,0%);stroke-opacity:1;stroke-dasharray:1,4;stroke-miterlimit:10;" d="M 172.000977 8 L 172.000977 143.999023 " transform="matrix(1.333333,0,0,1.333333,1.333333,1.333333)"/>
<path style="fill:none;stroke-width:1;stroke-linecap:butt;stroke-linejoin:round;stroke:rgb(0%,0%,0%);stroke-opacity:1;stroke-dasharray:1,4;stroke-miterlimit:10;" d="M 76.000977 8 L 76.000977 143.999023 " transform="matrix(1.333333,0,0,1.333333,1.333333,1.333333)"/>
<path style="fill:none;stroke-width:1;stroke-linecap:butt;stroke-linejoin:round;stroke:rgb(0%,0%,0%);stroke-opacity:1;stroke-dasharray:1,4;stroke-miterlimit:10;" d="M 28.000977 8 L 28.000977 143.999023 " transform="matrix(1.333333,0,0,1.333333,1.333333,1.333333)"/>
<path style="fill:none;stroke-width:1;stroke-linecap:butt;stroke-linejoin:round;stroke:rgb(0%,0%,0%);stroke-opacity:1;stroke-dasharray:1,4;stroke-miterlimit:10;" d="M 52.000977 8 L 52.000977 143.999023 " transform="matrix(1.333333,0,0,1.333333,1.333333,1.333333)"/>
<path style="fill:none;stroke-width:1;stroke-linecap:butt;stroke-linejoin:round;stroke:rgb(0%,0%,0%);stroke-opacity:1;stroke-dasharray:1,4;stroke-miterlimit:10;" d="M 8 52.000977 L 191.999023 52.000977 " transform="matrix(1.333333,0,0,1.333333,1.333333,1.333333)"/>
<path style="fill:none;stroke-width:1;stroke-linecap:butt;stroke-linejoin:round;stroke:rgb(0%,0%,0%);stroke-opacity:1;stroke-dasharray:1,4;stroke-miterlimit:10;" d="M 8 28.000977 L 191.999023 28.000977 " transform="matrix(1.333333,0,0,1.333333,1.333333,1.333333)"/>
<path style="fill:none;stroke-width:1;stroke-linecap:butt;stroke-linejoin:round;stroke:rgb(0%,0%,0%);stroke-opacity:1;stroke-dasharray:1,4;stroke-miterlimit:10;" d="M 8 100.000977 L 191.999023 100.000977 " transform="matrix(1.333333,0,0,1.333333,1.333333,1.333333)"/>
<path style="fill:none;stroke-width:1;stroke-linecap:butt;stroke-linejoin:round;stroke:rgb(0%,0%,0%);stroke-opacity:1;stroke-dasharray:1,4;stroke-miterlimit:10;" d="M 8 124.000977 L 191.999023 124.000977 " transform="matrix(1.333333,0,0,1.333333,1.333333,1.333333)"/>
<path style="fill:none;stroke-width:1;stroke-linecap:butt;stroke-linejoin:round;stroke:rgb(0%,0%,0%);stroke-opacity:1;stroke-miterlimit:10;" d="M 166.402344 53.867187 L 100.709961 75.760742 " transform="matrix(1.333333,0,0,1.333333,1.333333,1.333333)"/>
<path style="fill-rule:nonzero;fill:rgb(0%,0%,0%);fill-opacity:1;stroke-width:1;stroke-linecap:butt;stroke-linejoin:miter;stroke:rgb(0%,0%,0%);stroke-opacity:1;stroke-miterlimit:10;" d="M 100.334961 75.327148 C 100.707031 75.514648 100.856445 75.96582 100.671875 76.334961 C 100.484375 76.707031 100.036133 76.856445 99.664062 76.671875 C 99.291992 76.484375 99.145508 76.036133 99.327148 75.664062 C 99.514648 75.291992 99.96582 75.145508 100.334961 75.327148 " transform="matrix(1.333333,0,0,1.333333,1.333333,1.333333)"/>
<path style="fill:none;stroke-width:1;stroke-linecap:butt;stroke-linejoin:miter;stroke:rgb(0%,0%,0%);stroke-opacity:1;stroke-miterlimit:10;" d="M 170.199219 52.601562 L 166.402344 53.867187 M 165.930664 52.44043 L 170.199219 52.601562 L 166.879883 55.288086 " transform="matrix(1.333333,0,0,1.333333,1.333333,1.333333)"/>
<path style="fill:none;stroke-width:1;stroke-linecap:butt;stroke-linejoin:round;stroke:rgb(0%,0%,0%);stroke-opacity:1;stroke-miterlimit:10;" d="M 121.364258 33.277344 L 100.671875 74.65918 " transform="matrix(1.333333,0,0,1.333333,1.333333,1.333333)"/>
<path style="fill-rule:nonzero;fill:rgb(0%,0%,0%);fill-opacity:1;stroke-width:1;stroke-linecap:butt;stroke-linejoin:miter;stroke:rgb(0%,0%,0%);stroke-opacity:1;stroke-miterlimit:10;" d="M 99.526367 74.577148 C 100.311523 74.316406 101.161133 74.738281 101.421875 75.526367 C 101.682617 76.311523 101.260742 77.161133 100.472656 77.421875 C 99.6875 77.682617 98.84082 77.260742 98.577148 76.472656 C 98.316406 75.6875 98.738281 74.84082 99.526367 74.577148 " transform="matrix(1.333333,0,0,1.333333,1.333333,1.333333)"/>
<path style="fill:none;stroke-width:1;stroke-linecap:butt;stroke-linejoin:miter;stroke:rgb(0%,0%,0%);stroke-opacity:1;stroke-miterlimit:10;" d="M 123.148438 29.700195 L 121.364258 33.277344 M 120.019531 32.606445 L 123.148438 29.700195 L 122.703125 33.948242 " transform="matrix(1.333333,0,0,1.333333,1.333333,1.333333)"/>
<path style=" stroke:none;fill-rule:nonzero;fill:rgb(0%,0%,0%);fill-opacity:1;" d="M 203.480469 148.605469 C 201.792969 147.1875 201.4375 145.832031 201.4375 143.605469 C 201.4375 141.292969 201.8125 140.167969 203.480469 138.75 L 203.375 138.5625 C 201.457031 139.6875 200.417969 141.417969 200.417969 143.644531 C 200.417969 145.6875 201.4375 147.707031 203.332031 148.792969 Z M 203.480469 148.605469 "/>
<path style=" stroke:none;fill-rule:nonzero;fill:rgb(0%,0%,0%);fill-opacity:1;" d="M 209.515625 145.019531 L 209.351562 144.957031 C 208.953125 145.625 208.703125 145.75 208.203125 145.75 L 205.390625 145.75 L 207.371094 143.644531 C 208.433594 142.519531 208.914062 141.625 208.914062 140.667969 C 208.914062 139.480469 208.039062 138.5625 206.683594 138.5625 C 205.203125 138.5625 204.433594 139.542969 204.183594 140.9375 L 204.433594 141 C 204.914062 139.832031 205.351562 139.4375 206.203125 139.4375 C 207.226562 139.4375 207.871094 140.042969 207.871094 141.125 C 207.871094 142.144531 207.433594 143.0625 206.308594 144.25 L 204.183594 146.519531 L 204.183594 146.667969 L 208.871094 146.667969 Z M 209.515625 145.019531 "/>
<path style=" stroke:none;fill-rule:nonzero;fill:rgb(0%,0%,0%);fill-opacity:1;" d="M 210.828125 148.355469 C 211.664062 147.957031 212.164062 147.207031 212.164062 146.480469 C 212.164062 145.855469 211.746094 145.4375 211.203125 145.4375 C 210.789062 145.4375 210.496094 145.707031 210.496094 146.125 C 210.496094 146.542969 210.746094 146.730469 211.183594 146.730469 C 211.308594 146.730469 211.433594 146.6875 211.539062 146.6875 C 211.621094 146.6875 211.703125 146.769531 211.703125 146.855469 C 211.703125 147.25 211.371094 147.6875 210.703125 148.125 Z M 210.828125 148.355469 "/>
<path style=" stroke:none;fill-rule:nonzero;fill:rgb(0%,0%,0%);fill-opacity:1;" d="M 219.246094 144.332031 L 219.246094 143.582031 L 216.289062 143.582031 L 216.289062 144.332031 Z M 219.246094 144.332031 "/>
<path style=" stroke:none;fill-rule:nonzero;fill:rgb(0%,0%,0%);fill-opacity:1;" d="M 224.554688 146.667969 L 224.554688 146.480469 C 223.660156 146.480469 223.410156 146.269531 223.410156 145.75 L 223.410156 138.582031 L 223.304688 138.5625 L 221.160156 139.644531 L 221.160156 139.8125 L 221.472656 139.6875 C 221.699219 139.605469 221.910156 139.542969 222.011719 139.542969 C 222.285156 139.542969 222.386719 139.730469 222.386719 140.144531 L 222.386719 145.519531 C 222.386719 146.1875 222.136719 146.4375 221.242188 146.480469 L 221.242188 146.667969 Z M 224.554688 146.667969 "/>
<path style=" stroke:none;fill-rule:nonzero;fill:rgb(0%,0%,0%);fill-opacity:1;" d="M 226.179688 138.75 C 227.910156 140.125 228.222656 141.5 228.222656 143.730469 C 228.222656 146.0625 227.867188 147.1875 226.179688 148.605469 L 226.285156 148.792969 C 228.179688 147.625 229.242188 145.917969 229.242188 143.707031 C 229.242188 141.667969 228.160156 139.667969 226.324219 138.5625 Z M 226.179688 138.75 "/>
<path style="fill:none;stroke-width:1;stroke-linecap:butt;stroke-linejoin:round;stroke:rgb(0%,0%,0%);stroke-opacity:1;stroke-dasharray:4,4;stroke-miterlimit:10;" d="M 169.581055 57.265625 L 148.674805 98.65918 " transform="matrix(1.333333,0,0,1.333333,1.333333,1.333333)"/>
<path style="fill-rule:nonzero;fill:rgb(0%,0%,0%);fill-opacity:1;stroke-width:1;stroke-linecap:butt;stroke-linejoin:miter;stroke:rgb(0%,0%,0%);stroke-opacity:1;stroke-miterlimit:10;" d="M 147.532227 98.574219 C 148.317383 98.316406 149.166992 98.74707 149.424805 99.532227 C 149.682617 100.317383 149.254883 101.166992 148.469727 101.424805 C 147.68457 101.682617 146.832031 101.254883 146.574219 100.469727 C 146.316406 99.68457 146.74707 98.832031 147.532227 98.574219 " transform="matrix(1.333333,0,0,1.333333,1.333333,1.333333)"/>
<path style="fill:none;stroke-width:1;stroke-linecap:butt;stroke-linejoin:miter;stroke:rgb(0%,0%,0%);stroke-opacity:1;stroke-miterlimit:10;" d="M 171.382812 53.694336 L 169.581055 57.265625 M 168.242188 56.588867 L 171.382812 53.694336 L 170.922852 57.942383 " transform="matrix(1.333333,0,0,1.333333,1.333333,1.333333)"/>
<path style=" stroke:none;fill-rule:nonzero;fill:rgb(0%,0%,0%);fill-opacity:1;" d="M 141.820312 36.605469 C 140.132812 35.1875 139.777344 33.832031 139.777344 31.605469 C 139.777344 29.292969 140.152344 28.167969 141.820312 26.75 L 141.714844 26.5625 C 139.800781 27.6875 138.757812 29.417969 138.757812 31.644531 C 138.757812 33.6875 139.777344 35.707031 141.675781 36.792969 Z M 141.820312 36.605469 "/>
<path style=" stroke:none;fill-rule:nonzero;fill:rgb(0%,0%,0%);fill-opacity:1;" d="M 146.898438 34.667969 L 146.898438 34.480469 C 146.003906 34.480469 145.753906 34.269531 145.753906 33.75 L 145.753906 26.582031 L 145.648438 26.5625 L 143.503906 27.644531 L 143.503906 27.8125 L 143.816406 27.6875 C 144.046875 27.605469 144.253906 27.542969 144.359375 27.542969 C 144.628906 27.542969 144.734375 27.730469 144.734375 28.144531 L 144.734375 33.519531 C 144.734375 34.1875 144.484375 34.4375 143.585938 34.480469 L 143.585938 34.667969 Z M 146.898438 34.667969 "/>
<path style=" stroke:none;fill-rule:nonzero;fill:rgb(0%,0%,0%);fill-opacity:1;" d="M 149.171875 36.355469 C 150.003906 35.957031 150.503906 35.207031 150.503906 34.480469 C 150.503906 33.855469 150.085938 33.4375 149.546875 33.4375 C 149.128906 33.4375 148.835938 33.707031 148.835938 34.125 C 148.835938 34.542969 149.085938 34.730469 149.523438 34.730469 C 149.648438 34.730469 149.773438 34.6875 149.878906 34.6875 C 149.960938 34.6875 150.046875 34.769531 150.046875 34.855469 C 150.046875 35.25 149.710938 35.6875 149.046875 36.125 Z M 149.171875 36.355469 "/>
<path style=" stroke:none;fill-rule:nonzero;fill:rgb(0%,0%,0%);fill-opacity:1;" d="M 159.859375 33.019531 L 159.691406 32.957031 C 159.296875 33.625 159.046875 33.75 158.546875 33.75 L 155.734375 33.75 L 157.710938 31.644531 C 158.773438 30.519531 159.253906 29.625 159.253906 28.667969 C 159.253906 27.480469 158.378906 26.5625 157.023438 26.5625 C 155.546875 26.5625 154.773438 27.542969 154.523438 28.9375 L 154.773438 29 C 155.253906 27.832031 155.691406 27.4375 156.546875 27.4375 C 157.566406 27.4375 158.210938 28.042969 158.210938 29.125 C 158.210938 30.144531 157.773438 31.0625 156.648438 32.25 L 154.523438 34.519531 L 154.523438 34.667969 L 159.210938 34.667969 Z M 159.859375 33.019531 "/>
<path style=" stroke:none;fill-rule:nonzero;fill:rgb(0%,0%,0%);fill-opacity:1;" d="M 160.523438 26.75 C 162.253906 28.125 162.566406 29.5 162.566406 31.730469 C 162.566406 34.0625 162.210938 35.1875 160.523438 36.605469 L 160.628906 36.792969 C 162.523438 35.625 163.585938 33.917969 163.585938 31.707031 C 163.585938 29.667969 162.503906 27.667969 160.671875 26.5625 Z M 160.523438 26.75 "/>
<path style=" stroke:none;fill-rule:nonzero;fill:rgb(0%,0%,0%);fill-opacity:1;" d="M 238.144531 68.605469 C 236.457031 67.1875 236.105469 65.832031 236.105469 63.605469 C 236.105469 61.292969 236.480469 60.167969 238.144531 58.75 L 238.042969 58.5625 C 236.125 59.6875 235.082031 61.417969 235.082031 63.644531 C 235.082031 65.6875 236.105469 67.707031 238 68.792969 Z M 238.144531 68.605469 "/>
<path style=" stroke:none;fill-rule:nonzero;fill:rgb(0%,0%,0%);fill-opacity:1;" d="M 239.226562 60.542969 C 239.726562 59.667969 240.265625 59.269531 241.015625 59.269531 C 241.808594 59.269531 242.308594 59.6875 242.308594 60.5 C 242.308594 61.230469 241.933594 61.769531 241.351562 62.105469 C 241.101562 62.25 240.789062 62.375 240.328125 62.542969 L 240.328125 62.707031 C 241.015625 62.707031 241.289062 62.75 241.558594 62.832031 C 242.390625 63.0625 242.808594 63.644531 242.808594 64.5625 C 242.808594 65.582031 242.140625 66.394531 241.246094 66.394531 C 240.914062 66.394531 240.664062 66.332031 240.203125 66.019531 C 239.871094 65.792969 239.683594 65.707031 239.476562 65.707031 C 239.203125 65.707031 238.996094 65.894531 238.996094 66.144531 C 238.996094 66.582031 239.453125 66.832031 240.328125 66.832031 C 241.390625 66.832031 242.539062 66.480469 243.121094 65.707031 C 243.453125 65.269531 243.664062 64.667969 243.664062 64.042969 C 243.664062 63.417969 243.476562 62.855469 243.140625 62.5 C 242.890625 62.230469 242.664062 62.082031 242.140625 61.855469 C 242.953125 61.375 243.265625 60.769531 243.265625 60.207031 C 243.265625 59.207031 242.496094 58.5625 241.390625 58.5625 C 240.140625 58.5625 239.390625 59.355469 239.039062 60.5 Z M 239.226562 60.542969 "/>
<path style=" stroke:none;fill-rule:nonzero;fill:rgb(0%,0%,0%);fill-opacity:1;" d="M 245.496094 68.355469 C 246.328125 67.957031 246.828125 67.207031 246.828125 66.480469 C 246.828125 65.855469 246.414062 65.4375 245.871094 65.4375 C 245.453125 65.4375 245.164062 65.707031 245.164062 66.125 C 245.164062 66.542969 245.414062 66.730469 245.851562 66.730469 C 245.976562 66.730469 246.101562 66.6875 246.203125 66.6875 C 246.289062 66.6875 246.371094 66.769531 246.371094 66.855469 C 246.371094 67.25 246.039062 67.6875 245.371094 68.125 Z M 245.496094 68.355469 "/>
<path style=" stroke:none;fill-rule:nonzero;fill:rgb(0%,0%,0%);fill-opacity:1;" d="M 255.226562 66.667969 L 255.226562 66.480469 C 254.328125 66.480469 254.078125 66.269531 254.078125 65.75 L 254.078125 58.582031 L 253.976562 58.5625 L 251.828125 59.644531 L 251.828125 59.8125 L 252.140625 59.6875 C 252.371094 59.605469 252.578125 59.542969 252.683594 59.542969 C 252.953125 59.542969 253.058594 59.730469 253.058594 60.144531 L 253.058594 65.519531 C 253.058594 66.1875 252.808594 66.4375 251.914062 66.480469 L 251.914062 66.667969 Z M 255.226562 66.667969 "/>
<path style=" stroke:none;fill-rule:nonzero;fill:rgb(0%,0%,0%);fill-opacity:1;" d="M 256.851562 58.75 C 258.578125 60.125 258.890625 61.5 258.890625 63.730469 C 258.890625 66.0625 258.539062 67.1875 256.851562 68.605469 L 256.953125 68.792969 C 258.851562 67.625 259.914062 65.917969 259.914062 63.707031 C 259.914062 61.667969 258.828125 59.667969 256.996094 58.5625 Z M 256.851562 58.75 "/>
<path style="fill:none;stroke-width:1;stroke-linecap:butt;stroke-linejoin:round;stroke:rgb(0%,0%,0%);stroke-opacity:1;stroke-dasharray:4,4;stroke-miterlimit:10;" d="M 166.956055 49.370117 L 125.342773 28.668945 " transform="matrix(1.333333,0,0,1.333333,1.333333,1.333333)"/>
<path style="fill-rule:nonzero;fill:rgb(0%,0%,0%);fill-opacity:1;stroke-width:1;stroke-linecap:butt;stroke-linejoin:miter;stroke:rgb(0%,0%,0%);stroke-opacity:1;stroke-miterlimit:10;" d="M 125.421875 27.523437 C 125.688477 28.308594 125.260742 29.161133 124.475586 29.421875 C 123.69043 29.688477 122.84082 29.260742 122.577148 28.475586 C 122.313477 27.69043 122.738281 26.84082 123.523438 26.577148 C 124.308594 26.313477 125.161133 26.738281 125.421875 27.523437 " transform="matrix(1.333333,0,0,1.333333,1.333333,1.333333)"/>
<path style="fill:none;stroke-width:1;stroke-linecap:butt;stroke-linejoin:miter;stroke:rgb(0%,0%,0%);stroke-opacity:1;stroke-miterlimit:10;" d="M 170.539062 51.151367 L 166.956055 49.370117 M 167.624023 48.02832 L 170.539062 51.151367 L 166.288086 50.714844 " transform="matrix(1.333333,0,0,1.333333,1.333333,1.333333)"/>
</g>
</svg>
